<?xml version="1.0" encoding="UTF-8" standalone="no"?>
<svg
   width="24"
   height="24"
   viewBox="0 0 357 357"
   fill="none"
   version="1.1"
   id="svg4"
   sodipodi:docname="logo.svg"
   inkscape:version="1.3.2 (091e20e, 2023-11-25)"
   xmlns:inkscape="http://www.inkscape.org/namespaces/inkscape"
   xmlns:sodipodi="http://sodipodi.sourceforge.net/DTD/sodipodi-0.dtd"
   xmlns="http://www.w3.org/2000/svg"
   xmlns:svg="http://www.w3.org/2000/svg">
  <sodipodi:namedview
     id="namedview1"
     pagecolor="#505050"
     bordercolor="#eeeeee"
     borderopacity="1"
     inkscape:showpageshadow="0"
     inkscape:pageopacity="0"
     inkscape:pagecheckerboard="0"
     inkscape:deskcolor="#505050"
     inkscape:zoom="9.8333333"
     inkscape:cx="12"
     inkscape:cy="12"
     inkscape:window-width="1344"
     inkscape:window-height="449"
     inkscape:window-x="0"
     inkscape:window-y="43"
     inkscape:window-maximized="0"
     inkscape:current-layer="svg4" />
  <defs
     id="defs4" />
  <path
     id="rect1"
     fill="white"
     d="M 0,0 H 357 V 357 H 0 Z" />
  <g
     id="g4"
     style="fill:#000000">
    <path
       d="m 346.11,167.98 c -0.106,1.436 -0.478,2.952 -1.116,4.547 -0.585,1.595 -1.41,3.005 -2.473,4.228 -1.011,1.223 -2.207,2.154 -3.59,2.792 -1.383,0.585 -2.898,0.638 -4.547,0.159 -0.266,0.054 -0.426,0.213 -0.479,0.479 0,0.213 0,0.479 0,0.798 0,0.319 -0.026,0.638 -0.079,0.957 0,0.266 -0.08,0.452 -0.24,0.558 -1.755,0.479 -3.27,0.585 -4.547,0.32 -1.223,-0.32 -2.366,-0.745 -3.43,-1.277 -1.064,-0.585 -2.18,-1.196 -3.35,-1.835 -1.117,-0.638 -2.473,-1.063 -4.069,-1.276 -1.063,-1.861 -2.047,-3.802 -2.951,-5.823 -0.904,-2.074 -1.729,-4.228 -2.473,-6.462 0.372,-0.159 0.771,-0.266 1.196,-0.319 0.426,-0.053 0.798,-0.213 1.117,-0.479 -0.106,-0.478 -0.372,-0.744 -0.798,-0.797 -0.425,-0.107 -0.93,-0.16 -1.515,-0.16 0.212,-0.797 0.505,-1.489 0.877,-2.074 0.372,-0.585 0.745,-1.17 1.117,-1.755 0.425,-0.585 0.771,-1.196 1.037,-1.835 0.319,-0.691 0.505,-1.489 0.558,-2.393 1.117,-0.532 2.287,-1.303 3.51,-2.313 1.224,-1.011 2.473,-1.888 3.75,-2.633 1.276,-0.744 2.552,-1.17 3.829,-1.276 1.329,-0.159 2.606,0.399 3.829,1.675 0.904,-0.638 1.808,-0.851 2.712,-0.638 0.957,0.213 1.516,0.931 1.675,2.154 0.585,-0.638 1.516,-0.824 2.792,-0.558 0.16,0.585 0.399,1.09 0.718,1.515 0.372,0.426 0.559,0.957 0.559,1.596 4.095,-0.16 6.062,1.808 5.903,5.903 -0.479,0.159 -0.958,0.345 -1.436,0.558 -0.479,0.16 -0.931,0.399 -1.356,0.718 0.585,0.372 0.904,0.984 0.957,1.835 0.106,0.851 -0.213,1.436 -0.957,1.755 0.212,0.213 0.478,0.372 0.797,0.478 0.32,0.054 0.639,0.107 0.958,0.16 0.372,0.053 0.691,0.133 0.957,0.239 0.266,0.107 0.452,0.266 0.558,0.479 z m -10.769,-5.425 c -0.319,0 -0.532,-0.079 -0.638,-0.239 -0.106,-0.159 -0.372,-0.186 -0.798,-0.08 0,0.479 -0.133,0.958 -0.399,1.436 -0.265,0.426 -0.558,0.851 -0.877,1.277 -0.266,0.372 -0.479,0.744 -0.638,1.116 -0.16,0.373 -0.133,0.745 0.08,1.117 0.904,-0.372 1.701,-0.877 2.393,-1.515 0.691,-0.639 0.984,-1.676 0.877,-3.112 z m 15.476,52.49 c 0,1.915 -0.479,3.377 -1.436,4.388 -0.904,1.01 -1.941,1.808 -3.111,2.393 -1.117,0.585 -2.154,1.09 -3.111,1.516 -0.957,0.372 -1.436,0.93 -1.436,1.675 l 0.479,0.638 c 0.212,0 0.611,0.053 1.196,0.16 0.638,0.053 1.25,0.159 1.835,0.319 0.638,0.159 1.196,0.345 1.675,0.558 0.479,0.213 0.718,0.452 0.718,0.718 -0.053,0.213 -0.159,0.399 -0.319,0.558 -0.16,0.107 -0.319,0.213 -0.479,0.32 -0.425,0.319 -0.824,0.505 -1.196,0.558 -0.372,0.053 -0.692,0.133 -0.958,0.239 -0.265,0.053 -0.505,0.213 -0.717,0.479 -0.213,0.213 -0.399,0.691 -0.559,1.436 -0.159,0.638 -0.452,1.117 -0.877,1.436 -0.426,0.266 -0.878,0.505 -1.356,0.718 -0.426,0.159 -0.825,0.345 -1.197,0.558 -0.372,0.213 -0.558,0.558 -0.558,1.037 v 0.16 c -1.224,-0.904 -2.58,-1.357 -4.069,-1.357 -1.542,0 -3.058,0.266 -4.547,0.798 -1.489,0.479 -3.005,0.718 -4.547,0.718 -1.276,0 -2.659,-0.372 -4.148,-1.117 -1.489,-0.744 -2.872,-1.675 -4.148,-2.792 -1.276,-1.17 -2.34,-2.446 -3.191,-3.829 -0.851,-1.436 -1.276,-2.845 -1.276,-4.228 0,-0.372 0.079,-0.691 0.239,-0.957 0.213,-0.319 0.452,-0.611 0.718,-0.877 -0.266,-0.692 -0.585,-1.144 -0.957,-1.357 -0.373,-0.212 -0.745,-0.372 -1.117,-0.478 -0.319,-0.107 -0.612,-0.266 -0.878,-0.479 -0.212,-0.266 -0.319,-0.771 -0.319,-1.515 0,-1.064 -0.079,-2.075 -0.239,-3.032 -0.106,-1.01 -0.16,-2.021 -0.16,-3.031 0,-0.585 0.027,-1.17 0.08,-1.755 0.107,-0.585 0.266,-1.09 0.479,-1.516 0.266,-0.478 0.611,-0.851 1.037,-1.117 0.425,-0.319 0.984,-0.478 1.675,-0.478 h 0.399 c -0.426,-0.585 -0.771,-1.223 -1.037,-1.915 -0.266,-0.744 -0.399,-1.489 -0.399,-2.233 0,-0.107 0,-0.213 0,-0.319 0.053,-0.16 0.16,-0.24 0.319,-0.24 0.266,0 0.505,0.08 0.718,0.24 0.266,0.106 0.532,0.186 0.798,0.239 l 0.718,-0.319 c 0.266,-0.266 0.399,-0.532 0.399,-0.798 0,-0.266 -0.08,-0.479 -0.24,-0.638 -0.159,-0.16 -0.266,-0.372 -0.319,-0.638 0.213,-0.266 0.505,-0.426 0.878,-0.479 0.425,-0.106 0.771,-0.186 1.037,-0.239 0.691,-0.16 1.143,-0.346 1.356,-0.559 0.266,-0.212 0.425,-0.452 0.478,-0.718 0.054,-0.319 0.107,-0.611 0.16,-0.877 0.106,-0.266 0.372,-0.505 0.798,-0.718 0.319,-0.16 0.93,-0.319 1.835,-0.479 0.904,-0.159 1.861,-0.319 2.871,-0.478 1.064,-0.16 2.074,-0.293 3.032,-0.399 1.01,-0.106 1.728,-0.186 2.153,-0.239 0.32,0.585 0.958,1.037 1.915,1.356 1.01,0.266 2.154,0.478 3.43,0.638 1.277,0.159 2.633,0.319 4.069,0.478 1.435,0.16 2.738,0.426 3.908,0.798 1.224,0.372 2.207,0.904 2.952,1.596 0.798,0.691 1.197,1.622 1.197,2.792 l -0.08,0.718 -0.319,0.079 c -0.585,0 -1.117,-0.186 -1.596,-0.558 -0.478,-0.372 -1.01,-0.558 -1.595,-0.558 -0.266,-0.373 -0.745,-0.293 -1.436,0.239 -0.691,0.479 -1.33,1.064 -1.915,1.755 -0.585,0.638 -0.984,1.25 -1.196,1.835 -0.213,0.531 0.053,0.664 0.798,0.398 0.372,-0.106 0.717,-0.265 1.037,-0.478 0.372,-0.266 0.771,-0.399 1.196,-0.399 0.213,0 0.479,0.16 0.798,0.479 0.319,0.266 0.691,0.558 1.117,0.877 0.478,0.319 0.984,0.638 1.515,0.957 0.532,0.266 1.17,0.399 1.915,0.399 0.691,0 1.356,-0.159 1.994,-0.478 0.213,1.223 0.452,2.446 0.718,3.669 0.266,1.223 0.399,2.473 0.399,3.749 z m -12.205,4.228 c -0.319,-0.638 -0.798,-1.09 -1.436,-1.356 l 0.08,0.16 c 0,0.212 -0.133,0.425 -0.399,0.638 -0.213,0.159 -0.479,0.319 -0.798,0.479 -0.319,0.159 -0.611,0.319 -0.877,0.478 -0.213,0.16 -0.319,0.293 -0.319,0.399 0,0.16 0.159,0.266 0.478,0.319 0.319,0.053 0.532,0.08 0.638,0.08 0.373,0 0.904,-0.08 1.596,-0.239 0.691,-0.213 1.037,-0.532 1.037,-0.958 z m -5.983,-3.669 c -0.851,0.053 -1.702,0.186 -2.553,0.399 -0.797,0.159 -1.648,0.239 -2.552,0.239 -0.905,0 -1.862,-0.213 -2.872,-0.638 v 3.43 c 0.478,-0.266 0.957,-0.425 1.436,-0.479 0.478,-0.106 0.983,-0.159 1.515,-0.159 h 1.676 c 1.861,0 2.978,-0.931 3.35,-2.792 z m -11.328,9.493 v -0.24 c 0,-0.638 -0.186,-1.116 -0.558,-1.436 -0.319,-0.319 -0.718,-0.585 -1.197,-0.797 -0.478,-0.213 -0.984,-0.399 -1.515,-0.559 -0.532,-0.212 -0.984,-0.478 -1.356,-0.797 0.159,2.978 1.675,4.493 4.547,4.547 z"
       fill="#000000"
       id="path1"
       style="fill:#000000" />
    <path
       d="m 300.162,222.065 c 0,0.479 -0.027,1.117 -0.08,1.915 -0.053,0.798 -0.319,1.329 -0.798,1.595 -0.532,0.266 -0.877,0.718 -1.037,1.356 -0.106,0.639 -0.159,1.277 -0.159,1.915 0,0.638 -0.027,1.223 -0.08,1.755 -0.053,0.479 -0.266,0.718 -0.638,0.718 -0.266,0 -0.479,-0.053 -0.638,-0.16 -0.16,-0.159 -0.373,-0.239 -0.639,-0.239 -0.265,0 -0.531,0.133 -0.797,0.399 -0.266,0.266 -0.399,0.532 -0.399,0.798 0,0.265 0.08,0.478 0.239,0.638 0.213,0.106 0.319,0.292 0.319,0.558 0,0.213 -0.399,0.479 -1.196,0.798 -0.798,0.266 -1.702,0.532 -2.713,0.798 -1.01,0.319 -1.994,0.558 -2.951,0.718 -0.957,0.212 -1.596,0.319 -1.915,0.319 -1.914,0 -3.829,-0.346 -5.743,-1.037 -1.915,-0.692 -3.776,-1.33 -5.584,-1.915 -2.181,-0.744 -3.803,-1.968 -4.866,-3.669 -1.011,-1.702 -1.755,-3.617 -2.234,-5.744 -0.479,-2.127 -0.851,-4.308 -1.117,-6.541 -0.212,-2.234 -0.638,-4.228 -1.276,-5.983 -0.266,-0.798 -0.399,-1.463 -0.399,-1.995 0,-0.531 0.053,-0.957 0.16,-1.276 0.159,-0.372 0.319,-0.665 0.478,-0.877 0.213,-0.266 0.372,-0.479 0.479,-0.639 0.159,-0.212 0.239,-0.425 0.239,-0.638 0,-0.638 -0.186,-1.276 -0.558,-1.914 -0.373,-0.638 -0.559,-1.489 -0.559,-2.553 0,-0.585 0,-1.143 0,-1.675 0.053,-0.585 0.08,-1.17 0.08,-1.755 0,-1.968 -0.186,-3.59 -0.558,-4.866 -0.319,-1.277 -0.798,-2.447 -1.436,-3.51 -0.585,-1.064 -1.303,-2.127 -2.154,-3.191 -0.798,-1.064 -1.702,-2.34 -2.712,-3.829 -0.479,0.106 -0.984,0.159 -1.516,0.159 -0.479,0 -0.984,0 -1.516,0 -1.063,0 -2.127,-0.053 -3.19,-0.159 -1.011,-0.106 -2.048,-0.16 -3.112,-0.16 -1.116,0 -2.26,0.107 -3.43,0.319 -1.117,0.213 -2.26,0.32 -3.43,0.32 -0.745,0 -1.489,-0.107 -2.234,-0.32 -0.744,-0.265 -1.489,-0.398 -2.233,-0.398 -0.904,0 -1.808,0.186 -2.712,0.558 -0.905,0.319 -1.729,0.798 -2.473,1.436 -0.745,0.585 -1.357,1.303 -1.835,2.154 -0.426,0.797 -0.638,1.675 -0.638,2.632 v 2.553 c 0,4.627 -0.399,9.174 -1.197,13.641 -0.106,0.691 -0.213,1.383 -0.319,2.074 -0.106,0.638 -0.16,1.33 -0.16,2.074 0,2.18 0.426,3.935 1.277,5.265 0.904,1.33 1.994,2.42 3.27,3.271 1.277,0.797 2.686,1.462 4.228,1.994 1.543,0.532 2.952,1.09 4.228,1.675 1.277,0.532 2.34,1.197 3.191,1.994 0.904,0.798 1.356,1.888 1.356,3.271 0,0.532 -0.106,1.037 -0.319,1.516 -0.159,0.425 -0.372,0.851 -0.638,1.276 -0.691,1.117 -1.356,1.968 -1.994,2.553 -0.585,0.532 -1.25,0.957 -1.995,1.276 -0.691,0.319 -1.462,0.559 -2.313,0.718 -0.851,0.16 -1.861,0.372 -3.031,0.638 -0.904,0.213 -1.862,0.346 -2.872,0.399 -0.957,0.107 -1.915,0.16 -2.872,0.16 -1.489,0 -2.951,-0.186 -4.387,-0.559 -1.436,-0.319 -2.899,-0.478 -4.388,-0.478 -1.117,0 -2.26,0.106 -3.43,0.319 -1.117,0.159 -2.234,0.345 -3.35,0.558 -1.117,0.266 -2.234,0.479 -3.351,0.638 -1.117,0.213 -2.233,0.319 -3.35,0.319 -0.745,0 -1.569,-0.079 -2.473,-0.239 -0.851,-0.159 -1.649,-0.452 -2.393,-0.877 -0.745,-0.373 -1.383,-0.878 -1.915,-1.516 -0.478,-0.638 -0.718,-1.409 -0.718,-2.313 0,-0.745 0.186,-1.41 0.559,-1.995 0.372,-0.585 0.851,-1.09 1.436,-1.515 0.638,-0.426 1.302,-0.772 1.994,-1.037 0.691,-0.266 1.356,-0.426 1.994,-0.479 0.585,-0.053 1.064,-0.08 1.436,-0.08 0.425,0 0.771,-0.053 1.037,-0.159 0.319,-0.107 0.638,-0.266 0.957,-0.479 0.319,-0.213 0.692,-0.532 1.117,-0.957 0.266,-0.266 0.505,-0.479 0.718,-0.638 0.266,-0.16 0.585,-0.24 0.957,-0.24 0.266,0 0.532,0.027 0.798,0.08 0.266,0.053 0.532,0.08 0.798,0.08 0.425,0 0.851,-0.133 1.276,-0.399 1.117,-0.638 1.915,-1.463 2.393,-2.473 0.479,-1.01 0.798,-2.101 0.958,-3.271 0.159,-1.223 0.239,-2.473 0.239,-3.749 0.053,-1.276 0.213,-2.446 0.478,-3.51 0.266,-1.17 0.399,-2.26 0.399,-3.271 0,-1.861 -0.239,-3.696 -0.718,-5.504 -0.425,-1.808 -0.638,-3.643 -0.638,-5.504 0,-2.234 0.16,-4.467 0.479,-6.701 0.319,-2.234 0.478,-4.467 0.478,-6.701 0,-0.585 -0.026,-1.143 -0.079,-1.675 0,-0.532 0,-1.09 0,-1.675 0,-3.829 0.239,-7.605 0.718,-11.328 0.478,-3.723 0.718,-7.498 0.718,-11.327 0,-1.064 -0.027,-2.101 -0.08,-3.112 -0.053,-1.01 -0.133,-2.047 -0.239,-3.111 -0.107,-0.851 -0.213,-1.888 -0.32,-3.111 -0.106,-1.276 -0.265,-2.579 -0.478,-3.909 -0.213,-1.329 -0.505,-2.659 -0.878,-3.988 -0.319,-1.33 -0.797,-2.5 -1.436,-3.51 -0.585,-1.064 -1.329,-1.915 -2.233,-2.553 -0.851,-0.691 -1.888,-1.037 -3.111,-1.037 -0.266,0 -0.559,0.027 -0.878,0.08 -0.266,0.053 -0.532,0.08 -0.798,0.08 -0.585,0 -1.063,-0.16 -1.435,-0.479 -0.373,-0.372 -0.665,-0.798 -0.878,-1.276 -0.213,-0.532 -0.372,-1.091 -0.479,-1.676 -0.053,-0.584 -0.079,-1.09 -0.079,-1.515 0,-1.808 0.452,-3.138 1.356,-3.989 0.957,-0.851 2.1,-1.436 3.43,-1.755 1.383,-0.319 2.845,-0.452 4.387,-0.399 1.596,0 3.005,-0.053 4.228,-0.159 1.383,-0.107 2.739,-0.346 4.069,-0.718 1.382,-0.372 2.792,-0.559 4.228,-0.559 2.074,0 4.121,0.266 6.142,0.798 2.021,0.532 4.068,0.798 6.143,0.798 1.701,0 3.35,-0.133 4.945,-0.399 1.596,-0.319 3.191,-0.744 4.787,-1.276 0.797,-0.266 1.515,-0.399 2.154,-0.399 2.074,0 4.121,0.266 6.142,0.798 2.021,0.531 4.042,0.85 6.063,0.957 1.382,0.106 2.818,0.372 4.307,0.798 1.489,0.372 2.872,0.93 4.148,1.675 1.33,0.691 2.473,1.595 3.431,2.712 0.957,1.117 1.568,2.42 1.834,3.909 0.16,0.904 0.532,1.781 1.117,2.632 0.585,0.798 1.197,1.543 1.835,2.234 0.691,0.638 1.276,1.25 1.755,1.835 0.532,0.531 0.798,0.984 0.798,1.356 0,0.372 -0.186,0.665 -0.559,0.877 -0.319,0.16 -0.478,0.452 -0.478,0.878 0,0.266 0.159,0.558 0.478,0.877 0.373,0.319 0.771,0.692 1.197,1.117 0.425,0.426 0.798,0.904 1.117,1.436 0.372,0.479 0.558,1.01 0.558,1.595 0,0.798 -0.266,1.516 -0.798,2.154 -0.478,0.585 -0.718,1.277 -0.718,2.074 l 0.16,0.24 1.117,-0.319 0.159,0.159 c 0.213,0.851 0.293,1.755 0.24,2.712 0,0.904 0,1.729 0,2.473 0,1.011 -0.027,2.128 -0.08,3.351 -0.053,1.223 -0.186,2.419 -0.399,3.589 -0.213,1.17 -0.532,2.261 -0.957,3.271 -0.426,1.011 -1.037,1.808 -1.835,2.393 -0.479,0.373 -0.984,0.665 -1.516,0.878 -0.478,0.159 -0.957,0.372 -1.436,0.638 -0.478,0.213 -0.904,0.505 -1.276,0.877 -0.372,0.373 -0.665,0.878 -0.877,1.516 -0.266,0.904 -0.718,1.755 -1.357,2.553 -0.638,0.797 -1.303,1.595 -1.994,2.393 -0.638,0.744 -1.223,1.516 -1.755,2.313 -0.478,0.798 -0.718,1.676 -0.718,2.633 0,1.542 0.346,2.978 1.037,4.307 0.745,1.33 1.41,2.686 1.995,4.069 0.585,1.436 1.01,2.898 1.276,4.387 0.266,1.436 0.452,2.899 0.558,4.388 0.16,1.489 0.266,2.978 0.319,4.467 0.107,1.489 0.266,2.978 0.479,4.467 0.106,0.638 0.346,1.702 0.718,3.191 0.425,1.436 0.931,2.898 1.516,4.388 0.585,1.489 1.249,2.792 1.994,3.908 0.744,1.117 1.516,1.676 2.313,1.676 0.692,0 1.25,-0.373 1.676,-1.117 0.425,-0.745 0.824,-1.596 1.196,-2.553 0.426,-0.957 0.878,-1.888 1.356,-2.792 0.532,-0.904 1.223,-1.516 2.074,-1.835 1.649,0.16 3.005,0.479 4.069,0.958 1.116,0.478 1.967,1.143 2.552,1.994 0.585,0.798 0.984,1.808 1.197,3.031 0.266,1.17 0.399,2.553 0.399,4.148 z m -23.852,-73.39 c 0,-0.744 -0.16,-1.595 -0.479,-2.553 -0.319,-1.01 -0.718,-2.02 -1.196,-3.031 -0.479,-1.01 -1.011,-1.968 -1.596,-2.872 -0.531,-0.904 -1.063,-1.648 -1.595,-2.233 -1.117,0 -1.861,-0.08 -2.234,-0.24 -0.372,-0.159 -0.611,-0.345 -0.718,-0.558 -0.106,-0.266 -0.239,-0.558 -0.399,-0.877 -0.106,-0.32 -0.478,-0.639 -1.116,-0.958 -1.862,-0.904 -3.537,-1.595 -5.026,-2.074 -1.489,-0.478 -3.271,-0.718 -5.345,-0.718 -0.585,0 -1.17,0.16 -1.755,0.479 -0.531,0.319 -1.01,0.478 -1.436,0.478 -1.223,0 -2.419,-0.132 -3.589,-0.398 -1.17,-0.319 -2.367,-0.479 -3.59,-0.479 -1.755,0 -3.563,0.213 -5.425,0.638 -1.223,0.319 -2.446,0.612 -3.669,0.878 -1.223,0.266 -2.313,0.664 -3.271,1.196 -0.957,0.532 -1.755,1.25 -2.393,2.154 -0.585,0.904 -0.877,2.154 -0.877,3.749 0,1.649 0.159,3.271 0.478,4.866 0.373,1.596 0.559,3.218 0.559,4.867 0,0.797 -0.133,1.568 -0.399,2.313 -0.213,0.744 -0.452,1.489 -0.718,2.234 -0.266,0.691 -0.532,1.409 -0.798,2.153 -0.213,0.745 -0.319,1.516 -0.319,2.314 0,0.957 0.08,1.941 0.239,2.951 0.213,0.958 0.559,1.835 1.037,2.633 0.479,0.744 1.091,1.356 1.835,1.835 0.798,0.478 1.782,0.718 2.952,0.718 1.117,0 2.18,-0.213 3.191,-0.639 1.01,-0.478 2.074,-0.718 3.191,-0.718 0.585,0 1.143,0.16 1.675,0.479 0.532,0.266 1.063,0.558 1.595,0.878 0.532,0.319 1.09,0.638 1.675,0.957 0.585,0.266 1.224,0.399 1.915,0.399 0.532,0 1.037,-0.054 1.516,-0.16 0.478,-0.159 0.93,-0.346 1.356,-0.558 2.021,-0.904 4.148,-1.702 6.381,-2.393 2.287,-0.745 4.547,-1.117 6.781,-1.117 0.585,0 1.276,-0.319 2.074,-0.958 0.798,-0.691 1.622,-1.542 2.473,-2.552 0.851,-1.064 1.702,-2.207 2.553,-3.43 0.851,-1.277 1.595,-2.527 2.233,-3.75 0.692,-1.276 1.224,-2.419 1.596,-3.43 0.425,-1.064 0.638,-1.888 0.638,-2.473 z"
       fill="#000000"
       id="path2"
       style="fill:#000000" />
    <path
       d="m 193.267,151.387 c 0,0.958 -0.026,1.942 -0.079,2.952 0,0.957 -0.107,1.888 -0.319,2.792 -0.107,0.479 -0.346,1.01 -0.718,1.595 -0.373,0.532 -0.825,1.064 -1.357,1.596 -0.478,0.478 -1.01,0.904 -1.595,1.276 -0.585,0.319 -1.117,0.479 -1.595,0.479 -0.798,0 -1.303,-0.319 -1.516,-0.957 -0.213,-0.639 -0.372,-1.33 -0.479,-2.074 -0.053,-0.745 -0.212,-1.436 -0.478,-2.075 -0.213,-0.638 -0.745,-0.957 -1.596,-0.957 -0.266,0 -0.505,0.053 -0.718,0.16 -0.159,0.106 -0.372,0.159 -0.638,0.159 -0.106,0 -0.213,-0.319 -0.319,-0.957 -0.106,-0.638 -0.239,-1.409 -0.399,-2.313 -0.159,-0.904 -0.346,-1.809 -0.558,-2.713 -0.213,-0.957 -0.452,-1.755 -0.718,-2.393 -0.479,-1.01 -0.984,-2.047 -1.516,-3.111 -0.478,-1.117 -0.718,-2.287 -0.718,-3.51 0,-0.851 0.16,-1.569 0.479,-2.154 0.319,-0.638 0.665,-1.223 1.037,-1.755 0.372,-0.531 0.718,-1.063 1.037,-1.595 0.319,-0.532 0.479,-1.17 0.479,-1.915 0,-1.063 -0.346,-1.994 -1.037,-2.792 -0.692,-0.797 -1.569,-1.436 -2.633,-1.914 -1.01,-0.532 -2.101,-0.904 -3.271,-1.117 -1.116,-0.266 -2.1,-0.399 -2.951,-0.399 -1.436,0 -2.845,0.186 -4.228,0.559 -1.33,0.319 -2.686,0.717 -4.068,1.196 -1.33,0.479 -2.66,0.984 -3.989,1.516 -1.33,0.532 -2.659,0.984 -3.989,1.356 0.266,0.744 0.426,1.516 0.479,2.313 0.106,0.798 0.16,1.596 0.16,2.393 0,1.809 -0.08,3.617 -0.24,5.425 -0.159,1.755 -0.239,3.537 -0.239,5.345 0,1.967 0.106,3.935 0.319,5.903 0.213,1.914 0.425,3.829 0.638,5.743 0.266,1.915 0.505,3.856 0.718,5.824 0.213,1.914 0.319,3.829 0.319,5.743 0,2.34 -0.399,4.627 -1.196,6.861 -0.16,0.425 -0.24,0.771 -0.24,1.037 0,0.585 0.133,1.17 0.399,1.755 0.266,0.532 0.559,1.116 0.878,1.755 0.372,0.585 0.691,1.196 0.957,1.834 0.266,0.639 0.399,1.303 0.399,1.995 0,0.638 -0.107,1.249 -0.319,1.834 -0.213,0.585 -0.319,1.17 -0.319,1.755 0,0.851 0.106,1.676 0.319,2.473 0.266,0.798 0.399,1.622 0.399,2.473 0,0.479 -0.133,0.771 -0.399,0.878 -0.213,0.106 -0.479,0.159 -0.798,0.159 -0.319,0 -0.612,0.027 -0.878,0.08 -0.212,0 -0.319,0.133 -0.319,0.399 0,0.798 0.16,1.569 0.479,2.313 0.372,0.692 0.558,1.436 0.558,2.234 0,0.691 -0.159,1.356 -0.478,1.994 -0.266,0.585 -0.399,1.223 -0.399,1.915 0,0.691 0.292,1.303 0.877,1.835 0.639,0.531 1.091,1.17 1.357,1.914 0.265,0.904 0.478,1.941 0.638,3.111 0.212,1.17 0.585,2.287 1.117,3.351 0.585,1.063 1.462,1.967 2.632,2.712 1.17,0.691 2.898,1.037 5.185,1.037 h 2.314 c 0.638,0 1.409,0.053 2.313,0.159 0.957,0.107 1.861,0.32 2.712,0.639 0.904,0.266 1.649,0.691 2.234,1.276 0.638,0.532 0.957,1.223 0.957,2.074 0,0.851 -0.159,1.675 -0.479,2.473 -0.319,0.798 -0.478,1.622 -0.478,2.473 0,0.266 0.053,0.665 0.159,1.196 -0.797,0 -1.515,0.187 -2.153,0.559 -0.585,0.319 -1.011,0.877 -1.277,1.675 -1.063,-0.213 -2.154,-0.346 -3.27,-0.399 -1.064,-0.106 -2.128,-0.159 -3.191,-0.159 -2.713,0 -5.398,0.212 -8.057,0.638 -2.659,0.372 -5.345,0.798 -8.057,1.276 -2.659,0.426 -5.345,0.851 -8.057,1.277 -2.659,0.372 -5.345,0.558 -8.057,0.558 -0.904,0 -2.021,-0.027 -3.351,-0.08 -1.329,-0.053 -2.606,-0.239 -3.829,-0.558 -1.223,-0.319 -2.286,-0.798 -3.191,-1.436 -0.85,-0.691 -1.276,-1.675 -1.276,-2.952 0,-1.489 0.133,-2.579 0.399,-3.27 0.319,-0.745 0.691,-1.25 1.117,-1.516 0.425,-0.319 0.904,-0.505 1.436,-0.558 0.585,-0.054 1.143,-0.16 1.675,-0.319 0.159,-0.16 0.239,-0.32 0.239,-0.479 0,-0.266 -0.133,-0.479 -0.399,-0.638 -0.212,-0.213 -0.452,-0.373 -0.718,-0.479 0.904,-0.798 1.915,-1.356 3.032,-1.675 1.17,-0.319 2.34,-0.532 3.51,-0.638 1.223,-0.107 2.446,-0.213 3.669,-0.319 1.223,-0.107 2.367,-0.373 3.43,-0.798 0.426,-0.16 0.878,-0.612 1.356,-1.356 0.479,-0.745 0.905,-1.569 1.277,-2.473 0.425,-0.904 0.744,-1.808 0.957,-2.712 0.266,-0.904 0.399,-1.596 0.399,-2.074 v -0.16 c -0.372,-2.553 -0.665,-5.052 -0.878,-7.499 -0.212,-2.446 -0.319,-4.945 -0.319,-7.498 0,-0.213 0.08,-0.559 0.24,-1.037 0.159,-0.532 0.372,-1.064 0.638,-1.596 0.213,-0.585 0.505,-1.249 0.877,-1.994 -0.425,-0.691 -0.797,-1.329 -1.116,-1.914 -0.266,-0.532 -0.506,-1.037 -0.718,-1.516 -0.213,-0.479 -0.319,-0.851 -0.319,-1.117 0,-0.638 0.106,-1.25 0.319,-1.835 0.212,-0.585 0.372,-1.17 0.478,-1.755 0.319,-2.233 0.479,-4.493 0.479,-6.78 0,-0.958 -0.08,-1.888 -0.239,-2.792 -0.107,-0.958 -0.266,-1.888 -0.479,-2.792 -0.691,-3.244 -1.037,-6.595 -1.037,-10.052 0,-4.041 0.266,-8.057 0.798,-12.045 0.531,-3.989 0.797,-8.004 0.797,-12.046 0,-1.382 -0.239,-2.446 -0.718,-3.191 -0.478,-0.797 -1.409,-1.409 -2.792,-1.834 -1.861,-0.532 -3.802,-0.958 -5.823,-1.277 -1.968,-0.319 -3.935,-0.478 -5.903,-0.478 -1.489,0 -3.058,0.186 -4.707,0.558 -1.595,0.319 -3.084,0.878 -4.467,1.675 -1.329,0.745 -2.446,1.755 -3.35,3.032 -0.851,1.223 -1.277,2.712 -1.277,4.467 0,0.904 0.054,1.781 0.16,2.632 0.106,0.851 0.159,1.729 0.159,2.633 0,0.851 -0.186,1.595 -0.558,2.233 -0.319,0.585 -0.479,1.17 -0.479,1.755 0,0.798 0.213,1.543 0.639,2.234 0.425,0.691 0.638,1.436 0.638,2.234 0,0.531 -0.133,1.116 -0.399,1.755 -0.213,0.638 -0.479,1.303 -0.798,1.994 -0.319,0.638 -0.638,1.276 -0.957,1.914 -0.266,0.639 -0.479,1.224 -0.638,1.755 -0.266,0.798 -0.612,1.49 -1.037,2.075 -0.426,0.585 -1.091,0.877 -1.995,0.877 -0.744,0 -1.435,-0.239 -2.074,-0.718 -0.638,-0.532 -0.957,-1.17 -0.957,-1.914 0,-0.585 0.133,-1.037 0.399,-1.357 0.319,-0.372 0.479,-0.797 0.479,-1.276 0,-0.532 -0.107,-1.064 -0.32,-1.595 -0.212,-0.585 -0.478,-1.144 -0.797,-1.676 -0.266,-0.585 -0.505,-1.17 -0.718,-1.755 -0.213,-0.585 -0.319,-1.17 -0.319,-1.755 0,-0.744 0.106,-1.462 0.319,-2.153 0.266,-0.692 0.399,-1.41 0.399,-2.154 0,-1.596 -0.266,-3.165 -0.798,-4.707 -0.479,-1.542 -0.718,-3.111 -0.718,-4.706 0,-1.436 0.16,-3.138 0.479,-5.106 0.319,-1.967 0.851,-3.855 1.595,-5.664 0.798,-1.808 1.808,-3.323 3.031,-4.547 1.277,-1.276 2.872,-1.914 4.787,-1.914 1.329,0 2.632,0.159 3.909,0.479 1.329,0.265 2.685,0.398 4.068,0.398 1.542,0 3.084,-0.133 4.627,-0.398 1.542,-0.266 3.084,-0.399 4.626,-0.399 1.064,0 2.048,0.186 2.952,0.558 0.957,0.319 1.968,0.479 3.031,0.479 0.639,0 1.17,-0.133 1.596,-0.399 0.478,-0.319 1.01,-0.479 1.595,-0.479 0.638,0 1.25,0.16 1.835,0.479 0.638,0.266 1.276,0.399 1.914,0.399 0.585,0 1.117,-0.08 1.596,-0.24 0.532,-0.159 1.064,-0.239 1.595,-0.239 0.798,0 1.569,0.106 2.314,0.319 0.797,0.213 1.569,0.319 2.313,0.319 l 9.653,-1.196 c 1.435,-0.107 2.871,-0.213 4.307,-0.319 1.436,-0.107 2.899,-0.16 4.388,-0.16 2.552,0 5.078,0.213 7.578,0.638 2.553,0.373 5.105,0.851 7.658,1.436 v 0.08 c 1.755,0.425 3.005,1.329 3.749,2.712 0.745,1.383 1.224,2.978 1.436,4.786 0.266,1.755 0.373,3.564 0.319,5.425 -0.053,1.861 -0.026,3.457 0.08,4.786 0.16,2.021 0.346,4.069 0.559,6.143 0.265,2.021 0.398,4.042 0.398,6.062 z"
       fill="#000000"
       id="path3"
       style="fill:#000000" />
    <path
       d="m 99.3759,151.946 c 0,2.287 -0.6648,4.068 -1.9943,5.345 -1.2764,1.276 -3.0314,1.914 -5.265,1.914 -0.7445,0 -1.4625,-0.053 -2.1538,-0.16 -0.6914,-0.159 -1.3827,-0.345 -2.0741,-0.558 -0.9041,-1.223 -1.5688,-2.686 -1.9943,-4.387 -0.3722,-1.755 -0.7179,-3.537 -1.037,-5.345 -0.2659,-1.861 -0.585,-3.67 -0.9573,-5.425 -0.3722,-1.808 -0.9572,-3.403 -1.755,-4.786 -0.7445,-1.436 -1.8081,-2.579 -3.1908,-3.43 -1.3296,-0.904 -3.1377,-1.356 -5.4245,-1.356 -1.4359,0 -2.8718,0.159 -4.3077,0.478 -1.3827,0.266 -2.8186,0.399 -4.3077,0.399 -0.7445,0 -1.622,0 -2.6325,0 -1.0104,-0.053 -2.0474,-0.133 -3.1111,-0.239 -1.0104,-0.16 -1.9943,-0.346 -2.9515,-0.558 -0.9573,-0.213 -1.755,-0.532 -2.3932,-0.958 -0.1595,-0.106 -0.4254,-0.186 -0.7977,-0.239 -0.3191,-0.053 -0.6914,-0.08 -1.1168,-0.08 -0.3723,-0.053 -0.7711,-0.08 -1.1966,-0.08 -0.3723,0 -0.6382,0 -0.7977,0 -1.5954,0 -2.8718,0.08 -3.8291,0.24 -0.904,0.159 -1.7284,0.372 -2.4729,0.638 -0.6913,0.266 -1.4359,0.585 -2.2336,0.957 -0.7445,0.319 -1.8082,0.665 -3.1909,1.037 -1.0104,0.266 -1.755,0.585 -2.2336,0.958 -0.4254,0.372 -0.7179,0.824 -0.8775,1.356 -0.1595,0.478 -0.2393,1.063 -0.2393,1.755 0.0532,0.691 0.0532,1.489 0,2.393 -0.0532,0.638 -0.1064,1.276 -0.1595,1.914 0,0.585 0,1.197 0,1.835 0,1.915 0.0531,3.829 0.1595,5.744 0.1064,1.914 0.1595,3.855 0.1595,5.823 0,1.223 -0.1329,2.42 -0.3988,3.59 -0.2127,1.17 -0.3191,2.366 -0.3191,3.589 0,1.117 0.2393,1.888 0.7179,2.314 0.4787,0.425 1.0105,0.744 1.5955,0.957 0.585,0.213 1.1168,0.452 1.5954,0.718 0.5318,0.266 0.7977,0.798 0.7977,1.595 0.3723,0.054 0.718,0.107 1.0371,0.16 0.3722,0 0.7445,0 1.1168,0 1.755,0 3.5099,-0.239 5.2649,-0.718 1.755,-0.532 3.4834,-1.01 5.1852,-1.436 1.0636,-0.266 1.8348,-1.037 2.3134,-2.313 0.4786,-1.277 0.7977,-2.712 0.9572,-4.308 0.1596,-1.649 0.2394,-3.271 0.2394,-4.866 0,-1.595 0.0797,-2.819 0.2393,-3.669 0.1063,-0.692 0.3457,-1.357 0.7179,-1.995 0.4255,-0.638 0.9307,-1.196 1.5157,-1.675 0.585,-0.479 1.2232,-0.851 1.9145,-1.117 0.6914,-0.319 1.3827,-0.478 2.0741,-0.478 0.7445,0 1.4093,0.159 1.9943,0.478 1.17,0.585 1.9943,1.33 2.4729,2.234 0.5318,0.851 0.8775,1.808 1.0371,2.872 0.1595,1.063 0.2127,2.153 0.1595,3.27 0,1.117 0.0532,2.207 0.1595,3.271 0.1596,1.436 0.2394,2.845 0.2394,4.228 0,2.553 -0.133,5.052 -0.3989,7.498 -0.2127,2.447 -0.3191,4.946 -0.3191,7.499 0,1.383 0.0798,2.739 0.2393,4.068 0.1596,1.33 0.4521,2.659 0.8775,3.989 0.2659,0.957 0.3989,1.835 0.3989,2.632 0,0.904 -0.1064,1.782 -0.3191,2.633 -0.1596,0.851 -0.2393,1.728 -0.2393,2.632 0,0.532 0.0266,1.037 0.0797,1.516 0.1064,0.425 0.1596,0.904 0.1596,1.436 0,0.798 -0.2127,1.649 -0.6382,2.553 -0.3723,0.85 -0.8509,1.648 -1.4359,2.393 -0.585,0.691 -1.2763,1.276 -2.0741,1.755 -0.7445,0.478 -1.4624,0.718 -2.1538,0.718 -0.9573,0 -1.8613,-0.373 -2.7122,-1.117 -0.7978,-0.798 -1.5157,-1.675 -2.1539,-2.633 -0.6382,-0.957 -1.1434,-1.861 -1.5156,-2.712 -0.3191,-0.851 -0.4787,-1.356 -0.4787,-1.516 0,-0.265 0.1064,-0.452 0.3191,-0.558 0.2659,-0.159 0.5318,-0.292 0.7977,-0.399 0.2659,-0.159 0.5052,-0.319 0.718,-0.478 0.2659,-0.213 0.3988,-0.506 0.3988,-0.878 0,-0.266 -0.1329,-0.452 -0.3988,-0.558 -0.2128,-0.16 -0.4787,-0.293 -0.7977,-0.399 -0.266,-0.16 -0.5319,-0.346 -0.7978,-0.559 -0.2127,-0.265 -0.3191,-0.638 -0.3191,-1.116 0,-0.373 0.0532,-0.639 0.1596,-0.798 0.1064,-0.213 0.2393,-0.372 0.3989,-0.479 0.1595,-0.106 0.2924,-0.212 0.3988,-0.319 0.1064,-0.106 0.1596,-0.239 0.1596,-0.399 0,-0.425 -0.1862,-0.957 -0.5584,-1.595 -0.3723,-0.691 -0.8509,-1.356 -1.4359,-1.994 -0.5319,-0.639 -1.1434,-1.17 -1.8348,-1.596 -0.6382,-0.478 -1.2232,-0.718 -1.755,-0.718 -0.7977,0 -1.5954,0.16 -2.3931,0.479 -0.7446,0.266 -1.5423,0.399 -2.3932,0.399 -0.6914,0 -1.3561,-0.133 -1.9943,-0.399 -0.585,-0.266 -1.17,-0.399 -1.755,-0.399 -0.5318,0 -1.1168,0.239 -1.755,0.718 -0.6381,0.425 -1.2763,0.957 -1.9145,1.595 -0.585,0.585 -1.17,1.197 -1.755,1.835 -0.5318,0.585 -0.9572,1.064 -1.2763,1.436 -0.4255,0.425 -0.6648,1.064 -0.718,1.915 -0.0531,0.797 -0.0797,1.489 -0.0797,2.074 0,1.861 0.1063,3.696 0.3191,5.504 0.2659,1.755 0.3988,3.563 0.3988,5.424 0,0.798 -0.0266,1.596 -0.0798,2.394 0,0.797 0,1.595 0,2.393 0,0.638 0,1.462 0,2.473 0.0532,1.01 0.1862,2.02 0.3989,3.031 0.2127,1.01 0.5318,1.914 0.9573,2.712 0.4254,0.798 1.0104,1.303 1.7549,1.516 1.1169,0.372 2.3666,0.505 3.7493,0.399 h 1.5955 c 1.3827,0 2.6856,0.133 3.9088,0.399 1.2232,0.265 2.1538,0.957 2.792,2.074 0.5318,0.904 0.9041,1.914 1.1168,3.031 0.2659,1.064 0.3989,2.127 0.3989,3.191 0,0.638 -0.0798,1.356 -0.2393,2.154 -0.1064,0.797 -0.3457,1.542 -0.718,2.233 -0.3191,0.638 -0.7711,1.197 -1.3561,1.676 -0.5318,0.425 -1.1966,0.638 -1.9943,0.638 -1.5423,0 -3.1909,-0.186 -4.9459,-0.559 -1.7018,-0.319 -3.4036,-0.478 -5.1054,-0.478 -1.3295,0 -2.6324,0.159 -3.9088,0.478 -2.0741,0.585 -4.1481,0.958 -6.2222,1.117 -2.0741,0.16 -4.2279,0.239 -6.4615,0.239 -1.0105,0 -2.2071,-0.026 -3.5898,-0.079 -1.3827,-0.054 -2.7122,-0.24 -3.9886,-0.559 -1.2231,-0.266 -2.2868,-0.665 -3.19084,-1.196 -0.8509,-0.585 -1.27635,-1.383 -1.27635,-2.394 0,-1.116 0.07977,-2.313 0.23932,-3.589 0.15954,-1.277 0.47863,-2.447 0.95726,-3.51 0.53181,-1.064 1.24971,-1.941 2.15381,-2.633 0.9041,-0.691 2.1007,-1.037 3.5898,-1.037 0.4254,0 0.8775,0.027 1.3561,0.08 0.4786,0.053 0.9573,0.08 1.4359,0.08 1.0104,0 1.755,-0.16 2.2336,-0.479 0.4786,-0.372 0.8775,-0.771 1.1966,-1.196 0.3191,-0.426 0.6382,-0.825 0.9572,-1.197 0.3191,-0.372 0.7978,-0.612 1.4359,-0.718 -0.1063,-1.702 -0.2659,-3.35 -0.4786,-4.946 -0.1595,-1.648 -0.2393,-3.324 -0.2393,-5.025 0,-1.436 0.1329,-2.846 0.3988,-4.228 0.266,-1.383 0.7446,-2.713 1.4359,-3.989 -0.5318,-0.585 -0.9306,-1.595 -1.1965,-3.031 -0.2659,-1.436 -0.4521,-2.899 -0.5584,-4.388 -0.0532,-1.489 -0.0798,-2.765 -0.0798,-3.829 0,-1.117 0,-1.648 0,-1.595 0,-0.904 0.1329,-1.782 0.3988,-2.633 0.3191,-0.904 0.4787,-1.808 0.4787,-2.712 0,-0.425 -0.0532,-0.798 -0.1596,-1.117 -0.0531,-0.372 -0.0797,-0.771 -0.0797,-1.196 0,-0.638 0.0531,-1.091 0.1595,-1.356 0.1064,-0.266 0.2393,-0.452 0.3989,-0.559 0.1595,-0.106 0.2925,-0.213 0.3988,-0.319 0.1064,-0.159 0.1596,-0.452 0.1596,-0.877 0,-1.33 -0.1862,-2.633 -0.5584,-3.909 -0.3191,-1.33 -0.4787,-2.686 -0.4787,-4.069 0,-1.223 0.1064,-2.419 0.3191,-3.589 0.2659,-1.223 0.3989,-2.447 0.3989,-3.67 0,-2.393 -0.133,-4.76 -0.3989,-7.1 -0.2127,-2.393 -0.3191,-4.812 -0.3191,-7.259 0,-1.223 -0.1063,-2.579 -0.3191,-4.068 -0.2127,-1.542 -0.6115,-2.978 -1.1965,-4.308 -0.585,-1.329 -1.3827,-2.446 -2.3932,-3.35 -1.0104,-0.904 -2.2868,-1.356 -3.829,-1.356 -0.7446,0 -1.4891,0.053 -2.2337,0.159 -0.6913,0.053 -1.4093,0.08 -2.1538,0.08 -0.6914,0 -1.3561,-0.053 -1.9943,-0.16 C 9.47293,133.04 8.86134,132.747 8.27635,132.322 8.16999,131.311 7.93067,130.328 7.5584,129.37 7.18613,128.413 7,127.429 7,126.419 c 0,-0.745 0.2925,-1.356 0.87749,-1.835 0.63818,-0.479 1.4359,-0.851 2.39311,-1.117 0.9573,-0.266 2.0209,-0.452 3.1909,-0.558 1.2232,-0.107 2.4464,-0.16 3.6695,-0.16 1.5423,0 2.9782,0.053 4.3077,0.16 1.3827,0.053 2.4198,0.08 3.1111,0.08 0.7446,0 1.6486,-0.027 2.7123,-0.08 1.1168,-0.053 2.207,-0.16 3.2706,-0.319 1.1168,-0.213 2.1273,-0.532 3.0313,-0.958 0.9041,-0.425 1.5689,-1.037 1.9943,-1.834 0.6382,0 1.1966,0.133 1.6753,0.399 0.4786,0.212 0.9572,0.478 1.4358,0.797 0.4787,0.266 0.9573,0.532 1.4359,0.798 0.4787,0.213 1.0105,0.319 1.5955,0.319 0.7445,0 1.4359,-0.159 2.0741,-0.479 0.6913,-0.372 1.4093,-0.558 2.1538,-0.558 0.6913,0 1.3029,0.16 1.8347,0.479 0.5319,0.266 1.1434,0.399 1.8348,0.399 1.4359,0 2.8452,-0.16 4.2279,-0.479 1.4359,-0.319 2.8718,-0.638 4.3077,-0.957 1.4359,-0.373 2.8452,-0.718 4.2279,-1.037 1.4359,-0.319 2.8718,-0.479 4.3077,-0.479 1.0104,0 1.9411,0.16 2.792,0.479 0.9041,0.266 1.7284,0.771 2.4729,1.515 2.1805,-0.904 4.5736,-1.356 7.1795,-1.356 0.3191,0 1.0105,0.053 2.0741,0.16 1.0636,0.106 2.1804,0.239 3.3504,0.399 1.17,0.106 2.2336,0.239 3.1909,0.398 0.9572,0.16 1.4891,0.32 1.5954,0.479 0.3191,0.266 0.5584,0.718 0.718,1.356 0.1595,0.638 0.2925,1.33 0.3988,2.074 0.1596,0.692 0.3191,1.383 0.4787,2.074 0.1595,0.639 0.3988,1.117 0.7179,1.436 0.2127,0.213 0.4786,0.372 0.7977,0.479 0.3723,0.053 0.718,0.133 1.0371,0.239 0.319,0.107 0.5849,0.266 0.7977,0.479 0.2659,0.159 0.4254,0.452 0.4786,0.877 0.1064,1.277 0.1861,2.526 0.2393,3.75 0.0532,1.17 0.2659,2.393 0.6382,3.669 0.3191,1.117 0.6914,2.287 1.1168,3.51 0.4255,1.223 0.8243,2.446 1.1966,3.67 0.4254,1.223 0.7711,2.446 1.037,3.669 0.2659,1.223 0.3989,2.42 0.3989,3.59 z m -84.1594,76.98 c 0,-0.851 -0.1861,-1.596 -0.5584,-2.234 -0.3191,-0.638 -0.9307,-1.01 -1.8348,-1.117 0,0.213 -0.0265,0.426 -0.0797,0.638 0,0.16 0,0.346 0,0.559 0,0.851 0.1595,1.595 0.4786,2.233 0.3723,0.639 1.0105,1.011 1.9145,1.117 0,-0.212 0,-0.399 0,-0.558 0.0532,-0.213 0.0798,-0.426 0.0798,-0.638 z"
       fill="#000000"
       id="path4"
       style="fill:#000000" />
  </g>
</svg>
